<mxfile host="Electron" modified="2023-04-28T14:00:17.792Z" agent="Mozilla/5.0 (X11; Linux x86_64) AppleWebKit/537.36 (KHTML, like Gecko) draw.io/21.2.1 Chrome/112.0.5615.87 Electron/24.1.2 Safari/537.36" etag="_VZ0pQn-16O7S8xbg46E" version="21.2.1" type="device">
  <diagram id="kgR-aohzQAApRPb8lrtz" name="Page-1">
    <mxGraphModel dx="474" dy="885" grid="1" gridSize="10" guides="1" tooltips="1" connect="1" arrows="1" fold="1" page="1" pageScale="1" pageWidth="850" pageHeight="1100" math="0" shadow="0">
      <root>
        <mxCell id="0" />
        <mxCell id="1" parent="0" />
        <mxCell id="LCm6OyJEQZzXs0xIsrgS-1" value="Visual Studio Code" style="rounded=0;whiteSpace=wrap;html=1;fontFamily=Computer Modern;fontSize=15;" parent="1" vertex="1">
          <mxGeometry x="90" y="210" width="130" height="60" as="geometry" />
        </mxCell>
        <mxCell id="LCm6OyJEQZzXs0xIsrgS-2" value="&lt;font style=&quot;font-size: 20px&quot;&gt;Client&lt;/font&gt;" style="text;html=1;strokeColor=none;fillColor=none;align=center;verticalAlign=middle;whiteSpace=wrap;rounded=0;fontFamily=Computer Modern;" parent="1" vertex="1">
          <mxGeometry x="130" y="50" width="60" height="30" as="geometry" />
        </mxCell>
        <mxCell id="LCm6OyJEQZzXs0xIsrgS-3" value="" style="endArrow=none;dashed=1;html=1;rounded=0;fontSize=20;fontFamily=Computer Modern;" parent="1" edge="1">
          <mxGeometry width="50" height="50" relative="1" as="geometry">
            <mxPoint x="270" y="440" as="sourcePoint" />
            <mxPoint x="270" y="40" as="targetPoint" />
          </mxGeometry>
        </mxCell>
        <mxCell id="LCm6OyJEQZzXs0xIsrgS-4" value="" style="endArrow=none;dashed=1;html=1;rounded=0;fontSize=20;fontFamily=Computer Modern;" parent="1" edge="1">
          <mxGeometry width="50" height="50" relative="1" as="geometry">
            <mxPoint x="560" y="440" as="sourcePoint" />
            <mxPoint x="560" y="40" as="targetPoint" />
          </mxGeometry>
        </mxCell>
        <mxCell id="LCm6OyJEQZzXs0xIsrgS-5" value="&lt;div&gt;&lt;font style=&quot;font-size: 20px&quot;&gt;Language Server Protocol&lt;/font&gt;&lt;/div&gt;&lt;div&gt;&lt;font style=&quot;font-size: 20px&quot;&gt;(JSON-RPC)&lt;br&gt;&lt;/font&gt;&lt;/div&gt;" style="text;html=1;strokeColor=none;fillColor=none;align=center;verticalAlign=middle;whiteSpace=wrap;rounded=0;fontFamily=Computer Modern;" parent="1" vertex="1">
          <mxGeometry x="290" y="50" width="260" height="30" as="geometry" />
        </mxCell>
        <mxCell id="LCm6OyJEQZzXs0xIsrgS-6" value="&lt;font style=&quot;font-size: 20px&quot;&gt;Server&lt;/font&gt;" style="text;html=1;strokeColor=none;fillColor=none;align=center;verticalAlign=middle;whiteSpace=wrap;rounded=0;fontFamily=Computer Modern;" parent="1" vertex="1">
          <mxGeometry x="565" y="50" width="260" height="30" as="geometry" />
        </mxCell>
        <mxCell id="LCm6OyJEQZzXs0xIsrgS-8" value="TSServer (Javascript)" style="rounded=0;whiteSpace=wrap;html=1;fontSize=15;fontFamily=Computer Modern;" parent="1" vertex="1">
          <mxGeometry x="635" y="100" width="115" height="60" as="geometry" />
        </mxCell>
        <mxCell id="LCm6OyJEQZzXs0xIsrgS-9" value="&lt;div&gt;css-language-server&lt;/div&gt;&lt;div&gt;(CSS)&lt;br&gt;&lt;/div&gt;" style="rounded=0;whiteSpace=wrap;html=1;fontSize=15;fontFamily=Computer Modern;" parent="1" vertex="1">
          <mxGeometry x="620" y="340" width="140" height="60" as="geometry" />
        </mxCell>
        <mxCell id="LCm6OyJEQZzXs0xIsrgS-10" value="" style="endArrow=classic;html=1;rounded=0;fontSize=15;entryX=0;entryY=0.25;entryDx=0;entryDy=0;fontFamily=Computer Modern;" parent="1" source="LCm6OyJEQZzXs0xIsrgS-1" target="LCm6OyJEQZzXs0xIsrgS-8" edge="1">
          <mxGeometry width="50" height="50" relative="1" as="geometry">
            <mxPoint x="400" y="390" as="sourcePoint" />
            <mxPoint x="450" y="340" as="targetPoint" />
          </mxGeometry>
        </mxCell>
        <mxCell id="LCm6OyJEQZzXs0xIsrgS-11" value="Request: textDocument/completion" style="text;html=1;align=center;verticalAlign=middle;resizable=0;points=[];autosize=1;strokeColor=none;fillColor=none;fontSize=15;rotation=345;fontFamily=Computer Modern;" parent="1" vertex="1">
          <mxGeometry x="290" y="145" width="240" height="30" as="geometry" />
        </mxCell>
        <mxCell id="LCm6OyJEQZzXs0xIsrgS-12" value="" style="endArrow=classic;html=1;rounded=0;fontSize=15;exitX=0;exitY=0.5;exitDx=0;exitDy=0;entryX=1;entryY=0.5;entryDx=0;entryDy=0;fontFamily=Computer Modern;" parent="1" source="LCm6OyJEQZzXs0xIsrgS-8" target="LCm6OyJEQZzXs0xIsrgS-1" edge="1">
          <mxGeometry width="50" height="50" relative="1" as="geometry">
            <mxPoint x="400" y="390" as="sourcePoint" />
            <mxPoint x="220" y="230" as="targetPoint" />
          </mxGeometry>
        </mxCell>
        <mxCell id="LCm6OyJEQZzXs0xIsrgS-13" value="Response: CompletionItem[]" style="text;html=1;align=center;verticalAlign=middle;resizable=0;points=[];autosize=1;strokeColor=none;fillColor=none;fontSize=15;rotation=345;fontFamily=Computer Modern;" parent="1" vertex="1">
          <mxGeometry x="325" y="185" width="200" height="30" as="geometry" />
        </mxCell>
        <mxCell id="LCm6OyJEQZzXs0xIsrgS-14" value="" style="endArrow=classic;html=1;rounded=0;fontSize=15;exitX=1;exitY=0.65;exitDx=0;exitDy=0;exitPerimeter=0;entryX=0;entryY=0.25;entryDx=0;entryDy=0;fontFamily=Computer Modern;" parent="1" source="LCm6OyJEQZzXs0xIsrgS-1" target="LCm6OyJEQZzXs0xIsrgS-9" edge="1">
          <mxGeometry width="50" height="50" relative="1" as="geometry">
            <mxPoint x="400" y="390" as="sourcePoint" />
            <mxPoint x="450" y="340" as="targetPoint" />
          </mxGeometry>
        </mxCell>
        <mxCell id="LCm6OyJEQZzXs0xIsrgS-15" value="" style="endArrow=classic;html=1;rounded=0;fontSize=15;entryX=1;entryY=0.867;entryDx=0;entryDy=0;entryPerimeter=0;exitX=0;exitY=0.5;exitDx=0;exitDy=0;fontFamily=Computer Modern;" parent="1" source="LCm6OyJEQZzXs0xIsrgS-9" target="LCm6OyJEQZzXs0xIsrgS-1" edge="1">
          <mxGeometry width="50" height="50" relative="1" as="geometry">
            <mxPoint x="400" y="390" as="sourcePoint" />
            <mxPoint x="450" y="340" as="targetPoint" />
          </mxGeometry>
        </mxCell>
        <mxCell id="LCm6OyJEQZzXs0xIsrgS-16" value="Request: textDocument/definition" style="text;html=1;strokeColor=none;fillColor=none;align=center;verticalAlign=middle;whiteSpace=wrap;rounded=0;fontSize=15;rotation=14;fontFamily=Computer Modern;" parent="1" vertex="1">
          <mxGeometry x="310" y="280" width="240" height="30" as="geometry" />
        </mxCell>
        <mxCell id="LCm6OyJEQZzXs0xIsrgS-17" value="Response: Location" style="text;html=1;strokeColor=none;fillColor=none;align=center;verticalAlign=middle;whiteSpace=wrap;rounded=0;fontSize=15;rotation=14;fontFamily=Computer Modern;" parent="1" vertex="1">
          <mxGeometry x="305" y="310" width="240" height="30" as="geometry" />
        </mxCell>
      </root>
    </mxGraphModel>
  </diagram>
</mxfile>
